<?xml version="1.0" standalone="no"?>
<!DOCTYPE svg PUBLIC "-//W3C//DTD SVG 20010904//EN"
 "http://www.w3.org/TR/2001/REC-SVG-20010904/DTD/svg10.dtd">
<svg version="1.0" xmlns="http://www.w3.org/2000/svg"
 width="512.000000pt" height="512.000000pt" viewBox="0 0 512.000000 512.000000"
 preserveAspectRatio="xMidYMid meet">
<metadata>
Created by potrace 1.11, written by Peter Selinger 2001-2013
</metadata>
<g transform="translate(0.000000,512.000000) scale(0.100000,-0.100000)"
fill="#000000" stroke="none">
<path d="M2320 5024 c-326 -39 -587 -115 -859 -249 -244 -121 -430 -254 -629
-449 -212 -207 -363 -416 -493 -681 -115 -236 -180 -441 -226 -712 -26 -155
-26 -591 0 -746 94 -557 334 -1020 728 -1402 314 -305 684 -512 1104 -620 236
-60 321 -70 615 -70 288 0 368 9 598 65 166 41 306 91 467 169 258 124 451
259 654 456 214 208 364 413 495 675 114 229 189 463 233 725 26 157 26 593 0
748 -72 425 -227 789 -476 1122 -97 128 -288 325 -416 428 -273 220 -609 389
-937 472 -214 55 -317 67 -578 70 -135 2 -261 1 -280 -1z m1385 -1558 c111
-66 153 -203 95 -316 -18 -35 -1289 -1445 -1335 -1482 -40 -31 -92 -48 -149
-48 -101 0 -118 15 -576 487 -378 390 -420 437 -435 484 -52 155 49 307 211
317 113 7 127 -4 479 -368 170 -176 312 -320 316 -320 4 0 257 276 563 613
305 336 569 620 586 631 50 29 81 36 143 32 38 -3 72 -13 102 -30z"/>
</g>
</svg>
