<?xml version="1.0" standalone="no"?>
<!DOCTYPE svg PUBLIC "-//W3C//DTD SVG 20010904//EN"
 "http://www.w3.org/TR/2001/REC-SVG-20010904/DTD/svg10.dtd">
<svg version="1.0" xmlns="http://www.w3.org/2000/svg"
 width="512.000000pt" height="512.000000pt" viewBox="0 0 512.000000 512.000000"
 preserveAspectRatio="xMidYMid meet">
<metadata>
Created by potrace 1.11, written by Peter Selinger 2001-2013
</metadata>
<g transform="translate(0.000000,512.000000) scale(0.100000,-0.100000)"
fill="#000000" stroke="none">
<path d="M2330 4878 c-124 -11 -319 -51 -445 -89 -828 -254 -1442 -932 -1609
-1779 -213 -1077 361 -2164 1370 -2591 303 -129 577 -184 914 -184 284 0 490
34 750 121 620 209 1135 686 1391 1289 130 306 184 575 184 915 0 267 -31 473
-106 705 -335 1049 -1350 1717 -2449 1613z m1283 -1451 c118 -50 172 -195 115
-308 -13 -25 -285 -334 -640 -725 -499 -551 -625 -684 -660 -700 -55 -24 -140
-24 -192 1 -48 23 -819 813 -849 870 -32 63 -29 151 9 211 43 70 100 107 174
112 112 8 116 5 452 -339 166 -170 305 -308 308 -307 4 2 242 263 529 580 389
429 534 582 565 598 48 24 140 27 189 7z"/>
</g>
</svg>
